<svg xmlns="http://www.w3.org/2000/svg" xmlns:xlink="http://www.w3.org/1999/xlink" xmlns:lucid="lucid" width="1100" height="640"><g transform="translate(500 340)" lucid:page-tab-id="0_0"><path d="M-480-295a5 5 0 0 1 5-5h270a5 5 0 0 1 5 5v94a5 5 0 0 1-5 5h-270a5 5 0 0 1-5-5z" fill="#fff"/><path d="M-480-260v-35a5 5 0 0 1 5-5h270a5 5 0 0 1 5 5v35" fill="#ced4db"/><path d="M-480-295a5 5 0 0 1 5-5h270a5 5 0 0 1 5 5v94a5 5 0 0 1-5 5h-270a5 5 0 0 1-5-5zM-480-260h280M-340-260v64" stroke="#282c33" fill="none"/><use xlink:href="#a" transform="matrix(1,0,0,1,-470,-300) translate(0 23.6)"/><use xlink:href="#b" transform="matrix(1,0,0,1,-475,-257.5) translate(0 17.1)"/><use xlink:href="#c" transform="matrix(1,0,0,1,-335,-257.5) translate(0 17.1)"/><use xlink:href="#d" transform="matrix(1,0,0,1,-475,-225.5) translate(0 17.1)"/><use xlink:href="#e" transform="matrix(1,0,0,1,-335,-225.5) translate(0 17.1)"/><path d="M-90-315a5 5 0 0 1 5-5h270a5 5 0 0 1 5 5v94a5 5 0 0 1-5 5H-85a5 5 0 0 1-5-5z" fill="#fff"/><path d="M-90-280v-35a5 5 0 0 1 5-5h270a5 5 0 0 1 5 5v35" fill="#ced4db"/><path d="M-90-315a5 5 0 0 1 5-5h270a5 5 0 0 1 5 5v94a5 5 0 0 1-5 5H-85a5 5 0 0 1-5-5zM-90-280h280M50-280v64" stroke="#282c33" fill="none"/><use xlink:href="#f" transform="matrix(1,0,0,1,-80,-320) translate(0 23.6)"/><use xlink:href="#g" transform="matrix(1,0,0,1,-85,-277.5) translate(0 17.1)"/><use xlink:href="#e" transform="matrix(1,0,0,1,55,-277.5) translate(0 17.1)"/><use xlink:href="#h" transform="matrix(1,0,0,1,-85,-245.5) translate(0 17.1)"/><use xlink:href="#e" transform="matrix(1,0,0,1,55,-245.5) translate(0 17.1)"/><path d="M-460 85a5 5 0 0 1 5-5h270a5 5 0 0 1 5 5v190a5 5 0 0 1-5 5h-270a5 5 0 0 1-5-5z" fill="#fff"/><path d="M-460 120V85a5 5 0 0 1 5-5h270a5 5 0 0 1 5 5v35" fill="#ced4db"/><path d="M-460 85a5 5 0 0 1 5-5h270a5 5 0 0 1 5 5v190a5 5 0 0 1-5 5h-270a5 5 0 0 1-5-5zM-460 120h280M-321.72 120v160" stroke="#282c33" fill="none"/><use xlink:href="#i" transform="matrix(1,0,0,1,-450,80) translate(0 23.6)"/><use xlink:href="#b" transform="matrix(1,0,0,1,-455,122.5) translate(0 17.1)"/><use xlink:href="#c" transform="matrix(1,0,0,1,-316.72016542413854,122.5) translate(0 17.1)"/><use xlink:href="#d" transform="matrix(1,0,0,1,-455,154.5) translate(0 17.1)"/><use xlink:href="#e" transform="matrix(1,0,0,1,-316.72016542413854,154.5) translate(0 17.1)"/><use xlink:href="#j" transform="matrix(1,0,0,1,-455,186.5) translate(0 17.1)"/><use xlink:href="#e" transform="matrix(1,0,0,1,-316.72016542413854,186.5) translate(0 17.1)"/><use xlink:href="#k" transform="matrix(1,0,0,1,-455,218.5) translate(0 17.1)"/><use xlink:href="#c" transform="matrix(1,0,0,1,-316.72016542413854,218.5) translate(0 17.1)"/><use xlink:href="#l" transform="matrix(1,0,0,1,-455,250.5) translate(0 17.1)"/><use xlink:href="#c" transform="matrix(1,0,0,1,-316.72016542413854,250.5) translate(0 17.1)"/><path d="M220-211a5 5 0 0 1 5-5h170a5 5 0 0 1 5 5v158a5 5 0 0 1-5 5H225a5 5 0 0 1-5-5z" fill="#fff"/><path d="M220-176v-35a5 5 0 0 1 5-5h170a5 5 0 0 1 5 5v35" fill="#ced4db"/><path d="M220-211a5 5 0 0 1 5-5h170a5 5 0 0 1 5 5v158a5 5 0 0 1-5 5H225a5 5 0 0 1-5-5zM220-176h180M310.07-176v128" stroke="#282c33" fill="none"/><use xlink:href="#m" transform="matrix(1,0,0,1,230,-216) translate(0 23.6)"/><use xlink:href="#b" transform="matrix(1,0,0,1,225,-173.5) translate(0 17.1)"/><use xlink:href="#e" transform="matrix(1,0,0,1,315.0706427596457,-173.5) translate(0 17.1)"/><use xlink:href="#d" transform="matrix(1,0,0,1,225,-141.5) translate(0 17.1)"/><use xlink:href="#e" transform="matrix(1,0,0,1,315.0706427596457,-141.5) translate(0 17.1)"/><use xlink:href="#n" transform="matrix(1,0,0,1,225,-109.5) translate(0 17.1)"/><use xlink:href="#e" transform="matrix(1,0,0,1,315.0706427596457,-109.5) translate(0 17.1)"/><use xlink:href="#o" transform="matrix(1,0,0,1,225,-77.5) translate(0 17.1)"/><use xlink:href="#e" transform="matrix(1,0,0,1,315.0706427596457,-77.5) translate(0 17.1)"/><path d="M300 45a5 5 0 0 1 5-5h270a5 5 0 0 1 5 5v94a5 5 0 0 1-5 5H305a5 5 0 0 1-5-5z" fill="#fff"/><path d="M300 80V45a5 5 0 0 1 5-5h270a5 5 0 0 1 5 5v35" fill="#ced4db"/><path d="M300 45a5 5 0 0 1 5-5h270a5 5 0 0 1 5 5v94a5 5 0 0 1-5 5H305a5 5 0 0 1-5-5zM300 80h280M438.28 80v64" stroke="#282c33" fill="none"/><use xlink:href="#p" transform="matrix(1,0,0,1,310,40) translate(0 23.6)"/><use xlink:href="#b" transform="matrix(1,0,0,1,305,82.5) translate(0 17.1)"/><use xlink:href="#c" transform="matrix(1,0,0,1,443.27983457586146,82.5) translate(0 17.1)"/><use xlink:href="#p" transform="matrix(1,0,0,1,305,114.5) translate(0 17.1)"/><use xlink:href="#q" transform="matrix(1,0,0,1,443.27983457586146,114.5) translate(0 17.1)"/><path d="M-240-135a5 5 0 0 1 5-5h190a5 5 0 0 1 5 5v94a5 5 0 0 1-5 5h-190a5 5 0 0 1-5-5z" fill="#fff"/><path d="M-240-100v-35a5 5 0 0 1 5-5h190a5 5 0 0 1 5 5v35" fill="#ced4db"/><path d="M-240-135a5 5 0 0 1 5-5h190a5 5 0 0 1 5 5v94a5 5 0 0 1-5 5h-190a5 5 0 0 1-5-5zM-240-100h200M-136.04-100v64" stroke="#282c33" fill="none"/><use xlink:href="#r" transform="matrix(1,0,0,1,-230,-140) translate(0 23.6)"/><use xlink:href="#b" transform="matrix(1,0,0,1,-235,-97.5) translate(0 17.1)"/><use xlink:href="#c" transform="matrix(1,0,0,1,-131.04167123477106,-97.5) translate(0 17.1)"/><use xlink:href="#r" transform="matrix(1,0,0,1,-235,-65.5) translate(0 17.1)"/><use xlink:href="#e" transform="matrix(1,0,0,1,-131.04167123477106,-65.5) translate(0 17.1)"/><path d="M-10-75a5 5 0 0 1 5-5h190a5 5 0 0 1 5 5v62a5 5 0 0 1-5 5H-5a5 5 0 0 1-5-5z" fill="#fff"/><path d="M-10-40v-35a5 5 0 0 1 5-5h190a5 5 0 0 1 5 5v35" fill="#ced4db"/><path d="M-10-75a5 5 0 0 1 5-5h190a5 5 0 0 1 5 5v62a5 5 0 0 1-5 5H-5a5 5 0 0 1-5-5zM-10-40h200M90-40v32" stroke="#282c33" fill="none"/><use xlink:href="#s" transform="matrix(1,0,0,1,0,-80) translate(0 23.6)"/><use xlink:href="#t" transform="matrix(1,0,0,1,-5,-37.5) translate(0 17.1)"/><use xlink:href="#c" transform="matrix(1,0,0,1,95,-37.5) translate(0 17.1)"/><path d="M-340-175.5V49.17" stroke="#3a414a" fill="none"/><path d="M-350-175.5h20M-340-195.5v20M-325 64c0 8.28-6.72 15-15 15-8.28 0-15-6.72-15-15 0-8.28 6.72-15 15-15 8.28 0 15 6.72 15 15z" stroke="#3a414a" fill="#fff"/><use xlink:href="#u" transform="matrix(1,0,0,1,-322,-188.35277703847126) translate(0 14.222222222222223)"/><use xlink:href="#v" transform="matrix(1,0,0,1,-332,20.02353400790047) translate(0 14.222222222222223)"/><path d="M210.5-264H434a6 6 0 0 1 6 6V9.18" stroke="#3a414a" fill="none"/><path d="M210.5-254v-20M190.5-264h20M455 24c0 8.28-6.72 15-15 15-8.28 0-15-6.72-15-15 0-8.28 6.72-15 15-15 8.28 0 15 6.72 15 15z" stroke="#3a414a" fill="#fff"/><use xlink:href="#u" transform="matrix(1,0,0,1,231.19928044275758,-289.3307205029532) translate(0 14.222222222222223)"/><use xlink:href="#v" transform="matrix(1,0,0,1,448.00000000000006,-37.81437135852549) translate(0 14.222222222222223)"/><path d="M90-195.5V-81" stroke="#3a414a" fill="none"/><path d="M80-195.5h20M90-215.5v20" stroke="#3a414a" fill="#fff"/><path d="M90.5-80.5h-1v-.5h1z" stroke="#3a414a" stroke-width=".05" fill="#3a414a"/><use xlink:href="#w" transform="matrix(1,0,0,1,57.234567901234634,-207.95419138268284) translate(0 14.222222222222223)"/><path d="M303.27-23.9H191" stroke="#3a414a" fill="none"/><path d="M320.75-32.6c0 8.3-6.72 15-15 15-8.3 0-15-6.7-15-15 0-8.28 6.7-15 15-15 8.28 0 15 6.72 15 15z" stroke="#3a414a" fill="#fff"/><path d="M191-23.4h-.5v-1h.5z" stroke="#3a414a" stroke-width=".05" fill="#3a414a"/><use xlink:href="#v" transform="matrix(1,0,0,1,333.50000000000006,-36.06290577377874) translate(0 14.222222222222223)"/><path d="M269.17 96h-3.67a6 6 0 0 0-6 6v92.07a6 6 0 0 1-6 6h-413" stroke="#3a414a" fill="none"/><path d="M299 96c0 8.3-6.72 15-15 15-8.28 0-15-6.7-15-15 0-8.27 6.72-15 15-15 8.28 0 15 6.73 15 15zM-159.5 210.07v-20M-179.5 200.07h20" stroke="#3a414a" fill="#fff"/><use xlink:href="#u" transform="matrix(1,0,0,1,-115.79552397990997,174.73808960436767) translate(0 14.222222222222223)"/><use xlink:href="#v" transform="matrix(1,0,0,1,238.7099308137246,98.66666666666669) translate(0 14.222222222222223)"/><path d="M-139.64-5.17V16a6 6 0 0 1-6 6h-87.8a6 6 0 0 0-6 6v31.5" stroke="#3a414a" fill="none"/><path d="M-124.64-20c0 8.28-6.72 15-15 15-8.3 0-15-6.72-15-15 0-8.28 6.7-15 15-15 8.28 0 15 6.72 15 15zM-229.43 59.5h-20M-239.43 79.5v-20" stroke="#3a414a" fill="#fff"/><use xlink:href="#v" transform="matrix(1,0,0,1,-131.64292303974133,-1.3333333333332398) translate(0 14.222222222222223)"/><use xlink:href="#u" transform="matrix(1,0,0,1,-221.42693395196036,43.67210005340645) translate(0 14.222222222222223)"/><path d="M-140-170.83V-258a6 6 0 0 1 6-6h23.5" stroke="#3a414a" fill="none"/><path d="M-125-156c0 8.28-6.72 15-15 15-8.28 0-15-6.72-15-15 0-8.28 6.72-15 15-15 8.28 0 15 6.72 15 15zM-110.5-274v20M-90.5-264h-20" stroke="#3a414a" fill="#fff"/><use xlink:href="#u" transform="matrix(1,0,0,1,-116.939738007226,-299.33333333290074) translate(0 14.222222222222223)"/><use xlink:href="#v" transform="matrix(1,0,0,1,-132,-197.33791527794713) translate(0 14.222222222222223)"/><path d="M90-7v136.84a6 6 0 0 1-6 6h-233.17" stroke="#3a414a" fill="none"/><path d="M90.5-7h-1v-.5h1z" stroke="#3a414a" stroke-width=".05" fill="#3a414a"/><path d="M-149 135.84c0 8.3-6.72 15-15 15-8.28 0-15-6.7-15-15 0-8.28 6.72-15 15-15 8.28 0 15 6.72 15 15z" stroke="#3a414a" fill="#fff"/><use xlink:href="#x" transform="matrix(1,0,0,1,-141.2401685050727,110.50954682799474) translate(0 14.222222222222223)"/><defs><path fill="#333" d="M248-139C247-14 144 9 11 0l48-248c105-6 190 8 189 109zm-34 0c1-70-52-87-126-82L50-27c98 7 163-21 164-112" id="y"/><path fill="#333" d="M50-231l6-30h32l-6 30H50zM6 0l37-190h31L37 0H6" id="z"/><path fill="#333" d="M55-144c13 50 104 24 104 88C159 21 15 23 1-39l26-10c6 40 102 42 102-4-13-50-104-23-104-87 0-71 143-71 148-8l-29 4c-5-35-85-37-89 0" id="A"/><path fill="#333" d="M51-54c-9 22 5 41 31 30L79-1C43 14 10-4 19-52l22-115H19l5-23h22l19-43h21l-9 43h35l-4 23H73" id="B"/><path fill="#333" d="M66-151c12-25 30-51 66-40l-6 26C45-176 58-65 38 0H6l36-190h30" id="C"/><path fill="#333" d="M68-162c25-46 127-43 121 31C183-60 169 1 98 4 69 5 53-11 43-31L36 0H5l52-261h31zm88 36c2-27-9-43-34-43-55 0-70 51-70 103 0 29 15 45 43 46 52 0 58-58 61-106" id="D"/><path fill="#333" d="M67 3c-93-2-31-127-26-193h32L48-50c-3 39 53 32 70 12 30-34 30-101 43-152h32L157 0h-30c1-10 6-24 4-33-14 20-29 37-64 36" id="E"/><path fill="#333" d="M133-28C103 26-5 8 13-77c13-62 24-115 90-117 29-1 46 15 56 35l19-102h32L160 0h-30zM45-64c-2 27 10 43 35 43 54-1 69-50 69-103 0-29-15-46-42-46-53-1-58 58-62 106" id="F"/><path fill="#333" d="M30-147c31-64 166-65 159 27C183-49 158 1 86 4 9 8 1-88 30-147zM88-20c53 0 68-48 68-100 0-31-11-51-44-50-52 1-68 46-68 97 0 32 13 53 44 53" id="G"/><g id="a"><use transform="matrix(0.05,0,0,0.05,0,0)" xlink:href="#y"/><use transform="matrix(0.05,0,0,0.05,12.950000000000001,0)" xlink:href="#z"/><use transform="matrix(0.05,0,0,0.05,16.900000000000002,0)" xlink:href="#A"/><use transform="matrix(0.05,0,0,0.05,25.900000000000002,0)" xlink:href="#B"/><use transform="matrix(0.05,0,0,0.05,30.900000000000002,0)" xlink:href="#C"/><use transform="matrix(0.05,0,0,0.05,36.85,0)" xlink:href="#z"/><use transform="matrix(0.05,0,0,0.05,40.800000000000004,0)" xlink:href="#D"/><use transform="matrix(0.05,0,0,0.05,50.800000000000004,0)" xlink:href="#E"/><use transform="matrix(0.05,0,0,0.05,60.800000000000004,0)" xlink:href="#z"/><use transform="matrix(0.05,0,0,0.05,64.75,0)" xlink:href="#F"/><use transform="matrix(0.05,0,0,0.05,74.75,0)" xlink:href="#G"/><use transform="matrix(0.05,0,0,0.05,84.75,0)" xlink:href="#C"/></g><g id="b"><use transform="matrix(0.05,0,0,0.05,0,0)" xlink:href="#z"/><use transform="matrix(0.05,0,0,0.05,3.95,0)" xlink:href="#F"/><path fill="#333" d="M-.9 1.25h15.75v1.32H-.9z"/></g><path fill="#333" d="M14 0l48-248h34L48 0H14" id="H"/><path fill="#333" d="M67-158c22-48 132-52 116 29L158 0h-32l25-140c3-38-53-32-70-12C52-117 51-52 38 0H6l36-190h30" id="I"/><path fill="#333" d="M111-194c62-3 86 47 72 106H45c-7 38 6 69 45 68 27-1 43-14 53-32l24 11C152-15 129 4 87 4 38 3 12-23 12-71c0-70 32-119 99-123zm44 81c14-66-71-72-95-28-4 8-8 17-11 28h106" id="J"/><path fill="#333" d="M103-194c29 0 47 14 56 36 2-11 5-23 8-32h30L160-5C157 61 82 97 21 62 9 55 4 45 1 30l28-7c7 42 83 31 92-3 4-16 9-38 13-55-13 20-29 36-62 36-40 0-60-25-60-64 0-71 23-131 91-131zm4 24c-53 0-58 54-61 104-2 27 10 44 36 44 49 0 65-50 67-102 1-29-15-46-42-46" id="K"/><g id="c"><use transform="matrix(0.05,0,0,0.05,0,0)" xlink:href="#H"/><use transform="matrix(0.05,0,0,0.05,5,0)" xlink:href="#I"/><use transform="matrix(0.05,0,0,0.05,15,0)" xlink:href="#B"/><use transform="matrix(0.05,0,0,0.05,20,0)" xlink:href="#J"/><use transform="matrix(0.05,0,0,0.05,30,0)" xlink:href="#K"/><use transform="matrix(0.05,0,0,0.05,40,0)" xlink:href="#J"/><use transform="matrix(0.05,0,0,0.05,50,0)" xlink:href="#C"/></g><path fill="#333" d="M173 0L80-213 41 0H11l48-248h37l94 214 40-214h30L212 0h-39" id="L"/><path fill="#333" d="M248-111c6-24 9-61-24-58-72 9-57 108-77 169h-31l26-142c3-37-50-30-64-10C52-115 50-51 37 0H6l36-190h30c-1 10-6 24-4 32 13-43 101-52 105 5 13-22 29-41 61-41 90 0 28 129 23 194h-31" id="M"/><g id="d"><use transform="matrix(0.05,0,0,0.05,0,0)" xlink:href="#L"/><use transform="matrix(0.05,0,0,0.05,12.950000000000001,0)" xlink:href="#G"/><use transform="matrix(0.05,0,0,0.05,22.950000000000003,0)" xlink:href="#M"/><use transform="matrix(0.05,0,0,0.05,37.900000000000006,0)" xlink:href="#D"/><use transform="matrix(0.05,0,0,0.05,47.900000000000006,0)" xlink:href="#C"/><use transform="matrix(0.05,0,0,0.05,53.85,0)" xlink:href="#J"/></g><path fill="#333" d="M194-120c59 52 2 134-86 124-53-6-90-18-98-63l31-7c8 30 29 43 70 43 46 0 84-17 71-62-32-43-135-20-137-98-3-89 178-90 191-16l-30 9c-8-48-127-53-127 5 0 53 81 35 115 65" id="N"/><g id="e"><use transform="matrix(0.05,0,0,0.05,0,0)" xlink:href="#N"/><use transform="matrix(0.05,0,0,0.05,12,0)" xlink:href="#B"/><use transform="matrix(0.05,0,0,0.05,17,0)" xlink:href="#C"/><use transform="matrix(0.05,0,0,0.05,22.95,0)" xlink:href="#z"/><use transform="matrix(0.05,0,0,0.05,26.899999999999995,0)" xlink:href="#I"/><use transform="matrix(0.05,0,0,0.05,36.9,0)" xlink:href="#K"/></g><path fill="#333" d="M222 0l43-216c-8 16-17 34-26 49L143 0h-22L81-216 41 0H11l48-248h42l38 208 116-208h45L252 0h-30" id="O"/><g id="f"><use transform="matrix(0.05,0,0,0.05,0,0)" xlink:href="#O"/><use transform="matrix(0.05,0,0,0.05,14.950000000000001,0)" xlink:href="#J"/><use transform="matrix(0.05,0,0,0.05,24.950000000000003,0)" xlink:href="#A"/></g><path fill="#333" d="M187 0l-14-72H61L19 0h-37l149-248h38L221 0h-34zm-19-99l-22-123L76-99h92" id="P"/><path fill="#333" d="M67-158c22-48 132-52 116 29L158 0h-32l25-140c3-38-53-32-70-12C52-117 51-52 38 0H6l36-190h30zm126-100c-8 21-15 46-44 47-22 0-30-19-50-21-14 0-21 10-25 21H58c8-21 14-47 44-47 22 0 32 18 50 21 13-1 21-10 25-21h16" id="Q"/><g id="g"><use transform="matrix(0.05,0,0,0.05,0,0)" xlink:href="#P"/><use transform="matrix(0.05,0,0,0.05,12,0)" xlink:href="#Q"/><use transform="matrix(0.05,0,0,0.05,22,0)" xlink:href="#G"/><path fill="#333" d="M-.9 1.25h33.8v1.32H-.9z"/></g><g id="h"><use transform="matrix(0.05,0,0,0.05,0,0)" xlink:href="#O"/><use transform="matrix(0.05,0,0,0.05,14.950000000000001,0)" xlink:href="#J"/><use transform="matrix(0.05,0,0,0.05,24.950000000000003,0)" xlink:href="#A"/><path fill="#333" d="M-.9 1.25h35.75v1.32H-.9z"/></g><path fill="#333" d="M11 0l48-248h184l-5 28H87l-15 79h140l-5 27H67L50-27h158l-5 27H11" id="R"/><path fill="#333" d="M165-48c-4 18 1 34 23 27l-3 20c-29 8-62 0-52-35h-2C116-14 99 4 63 4 30 4 8-16 8-49c0-68 71-67 138-67 10-26 0-56-31-54-26 1-42 9-47 31l-32-5c8-67 160-71 144 15-5 28-9 54-15 81zM42-50c3 52 80 24 89-6 7-12 7-24 11-38-47 1-103-4-100 44" id="S"/><path fill="#333" d="M6 0l50-261h32L37 0H6" id="T"/><path fill="#333" d="M44-68c0 29 11 47 38 47 30 0 42-19 51-41l28 9C148-21 126 4 82 4 31 4 10-29 12-85c3-77 74-140 146-93 12 8 15 23 18 40l-31 5c-1-22-13-36-36-36-52 0-65 49-65 101" id="U"/><g id="i"><use transform="matrix(0.05,0,0,0.05,0,0)" xlink:href="#R"/><use transform="matrix(0.05,0,0,0.05,12,0)" xlink:href="#A"/><use transform="matrix(0.05,0,0,0.05,21,0)" xlink:href="#B"/><use transform="matrix(0.05,0,0,0.05,26,0)" xlink:href="#S"/><use transform="matrix(0.05,0,0,0.05,36,0)" xlink:href="#D"/><use transform="matrix(0.05,0,0,0.05,46,0)" xlink:href="#T"/><use transform="matrix(0.05,0,0,0.05,49.95,0)" xlink:href="#J"/><use transform="matrix(0.05,0,0,0.05,59.95,0)" xlink:href="#U"/><use transform="matrix(0.05,0,0,0.05,68.95,0)" xlink:href="#z"/><use transform="matrix(0.05,0,0,0.05,72.9,0)" xlink:href="#M"/><use transform="matrix(0.05,0,0,0.05,87.85000000000001,0)" xlink:href="#z"/><use transform="matrix(0.05,0,0,0.05,91.80000000000001,0)" xlink:href="#J"/><use transform="matrix(0.05,0,0,0.05,101.80000000000001,0)" xlink:href="#I"/><use transform="matrix(0.05,0,0,0.05,111.80000000000001,0)" xlink:href="#B"/><use transform="matrix(0.05,0,0,0.05,116.80000000000001,0)" xlink:href="#G"/></g><path fill="#333" d="M31-147c31-64 166-65 159 27C184-49 159 1 87 4 10 8 2-88 31-147zM89-20c53 0 68-48 68-100 0-31-11-51-44-50-52 1-68 46-68 97 0 32 13 53 44 53zm5-191c10-23 31-35 45-54h38l-1 5-66 49H94" id="V"/><g id="j"><use transform="matrix(0.05,0,0,0.05,0,0)" xlink:href="#y"/><use transform="matrix(0.05,0,0,0.05,12.950000000000001,0)" xlink:href="#z"/><use transform="matrix(0.05,0,0,0.05,16.900000000000002,0)" xlink:href="#C"/><use transform="matrix(0.05,0,0,0.05,22.85,0)" xlink:href="#J"/><use transform="matrix(0.05,0,0,0.05,32.85,0)" xlink:href="#U"/><use transform="matrix(0.05,0,0,0.05,41.85,0)" xlink:href="#U"/><use transform="matrix(0.05,0,0,0.05,50.85,0)" xlink:href="#z"/><use transform="matrix(0.05,0,0,0.05,54.800000000000004,0)" xlink:href="#V"/><use transform="matrix(0.05,0,0,0.05,64.80000000000001,0)" xlink:href="#I"/></g><path fill="#333" d="M-28 44V31h207v13H-28" id="W"/><g id="k"><use transform="matrix(0.05,0,0,0.05,0,0)" xlink:href="#L"/><use transform="matrix(0.05,0,0,0.05,12.950000000000001,0)" xlink:href="#G"/><use transform="matrix(0.05,0,0,0.05,22.950000000000003,0)" xlink:href="#B"/><use transform="matrix(0.05,0,0,0.05,27.950000000000003,0)" xlink:href="#S"/><use transform="matrix(0.05,0,0,0.05,37.95,0)" xlink:href="#W"/><use transform="matrix(0.05,0,0,0.05,47.95,0)" xlink:href="#S"/><use transform="matrix(0.05,0,0,0.05,57.95,0)" xlink:href="#U"/><use transform="matrix(0.05,0,0,0.05,66.95,0)" xlink:href="#B"/><use transform="matrix(0.05,0,0,0.05,71.95,0)" xlink:href="#E"/><use transform="matrix(0.05,0,0,0.05,81.95,0)" xlink:href="#S"/><use transform="matrix(0.05,0,0,0.05,91.95,0)" xlink:href="#T"/></g><g id="l"><use transform="matrix(0.05,0,0,0.05,0,0)" xlink:href="#L"/><use transform="matrix(0.05,0,0,0.05,12.950000000000001,0)" xlink:href="#G"/><use transform="matrix(0.05,0,0,0.05,22.950000000000003,0)" xlink:href="#B"/><use transform="matrix(0.05,0,0,0.05,27.950000000000003,0)" xlink:href="#S"/><use transform="matrix(0.05,0,0,0.05,37.95,0)" xlink:href="#W"/><use transform="matrix(0.05,0,0,0.05,47.95,0)" xlink:href="#S"/><use transform="matrix(0.05,0,0,0.05,57.95,0)" xlink:href="#I"/><use transform="matrix(0.05,0,0,0.05,67.95,0)" xlink:href="#B"/><use transform="matrix(0.05,0,0,0.05,72.95,0)" xlink:href="#J"/><use transform="matrix(0.05,0,0,0.05,82.95,0)" xlink:href="#C"/><use transform="matrix(0.05,0,0,0.05,88.9,0)" xlink:href="#z"/><use transform="matrix(0.05,0,0,0.05,92.85000000000001,0)" xlink:href="#G"/><use transform="matrix(0.05,0,0,0.05,102.85000000000001,0)" xlink:href="#C"/></g><path fill="#333" d="M238-179c0 84-86 86-175 82L45 0H11l48-248c82 0 179-12 179 69zm-34 1c0-53-64-42-116-43l-19 98c63 0 135 9 135-55" id="X"/><g id="m"><use transform="matrix(0.05,0,0,0.05,0,0)" xlink:href="#X"/><use transform="matrix(0.05,0,0,0.05,12,0)" xlink:href="#C"/><use transform="matrix(0.05,0,0,0.05,17.95,0)" xlink:href="#G"/><use transform="matrix(0.05,0,0,0.05,27.950000000000003,0)" xlink:href="#F"/><use transform="matrix(0.05,0,0,0.05,37.95,0)" xlink:href="#E"/><use transform="matrix(0.05,0,0,0.05,47.95,0)" xlink:href="#U"/><use transform="matrix(0.05,0,0,0.05,56.95,0)" xlink:href="#B"/><use transform="matrix(0.05,0,0,0.05,61.95,0)" xlink:href="#G"/></g><g id="n"><use transform="matrix(0.05,0,0,0.05,0,0)" xlink:href="#X"/><use transform="matrix(0.05,0,0,0.05,12,0)" xlink:href="#J"/><use transform="matrix(0.05,0,0,0.05,22,0)" xlink:href="#A"/><use transform="matrix(0.05,0,0,0.05,31,0)" xlink:href="#G"/></g><g id="o"><use transform="matrix(0.05,0,0,0.05,0,0)" xlink:href="#N"/><use transform="matrix(0.05,0,0,0.05,12,0)" xlink:href="#J"/><use transform="matrix(0.05,0,0,0.05,22,0)" xlink:href="#U"/><use transform="matrix(0.05,0,0,0.05,31,0)" xlink:href="#B"/><use transform="matrix(0.05,0,0,0.05,36,0)" xlink:href="#G"/><use transform="matrix(0.05,0,0,0.05,46,0)" xlink:href="#C"/></g><g id="p"><use transform="matrix(0.05,0,0,0.05,0,0)" xlink:href="#L"/><use transform="matrix(0.05,0,0,0.05,12.950000000000001,0)" xlink:href="#G"/><use transform="matrix(0.05,0,0,0.05,22.950000000000003,0)" xlink:href="#B"/><use transform="matrix(0.05,0,0,0.05,27.950000000000003,0)" xlink:href="#S"/></g><path fill="#333" d="M249-183c0 48-29 72-75 77L221 0h-36l-43-103H65L45 0H11l48-248c83 2 190-17 190 65zm-34 3c0-55-74-39-127-41l-18 92c63-1 145 13 145-51" id="Y"/><g id="q"><use transform="matrix(0.05,0,0,0.05,0,0)" xlink:href="#Y"/><use transform="matrix(0.05,0,0,0.05,12.950000000000001,0)" xlink:href="#J"/><use transform="matrix(0.05,0,0,0.05,22.950000000000003,0)" xlink:href="#S"/><use transform="matrix(0.05,0,0,0.05,32.95,0)" xlink:href="#T"/></g><path fill="#333" d="M119 0H84L31-248h34l41 218 126-218h36" id="Z"/><g id="r"><use transform="matrix(0.05,0,0,0.05,0,0)" xlink:href="#Z"/><use transform="matrix(0.05,0,0,0.05,11.35,0)" xlink:href="#S"/><use transform="matrix(0.05,0,0,0.05,21.35,0)" xlink:href="#T"/><use transform="matrix(0.05,0,0,0.05,25.3,0)" xlink:href="#G"/><use transform="matrix(0.05,0,0,0.05,35.3,0)" xlink:href="#C"/><use transform="matrix(0.05,0,0,0.05,41.25,0)" xlink:href="#S"/><use transform="matrix(0.05,0,0,0.05,51.25,0)" xlink:href="#U"/><use transform="matrix(0.05,0,0,0.05,60.25,0)" xlink:href="#z"/><use transform="matrix(0.05,0,0,0.05,64.2,0)" xlink:href="#V"/><use transform="matrix(0.05,0,0,0.05,74.2,0)" xlink:href="#I"/></g><g id="s"><use transform="matrix(0.05,0,0,0.05,0,0)" xlink:href="#Z"/><use transform="matrix(0.05,0,0,0.05,11.35,0)" xlink:href="#J"/><use transform="matrix(0.05,0,0,0.05,21.35,0)" xlink:href="#I"/><use transform="matrix(0.05,0,0,0.05,31.35,0)" xlink:href="#B"/><use transform="matrix(0.05,0,0,0.05,36.35,0)" xlink:href="#S"/></g><path fill="#333" d="M125-24c46 0 70-25 89-51l25 16C214-24 183 4 123 4 8 4-5-146 60-208c32-50 158-61 191-5 5 7 9 14 11 22l-32 10c-9-28-33-43-69-43-74 0-108 51-108 125 0 46 24 75 72 75" id="aa"/><g id="t"><use transform="matrix(0.05,0,0,0.05,0,0)" xlink:href="#aa"/><use transform="matrix(0.05,0,0,0.05,12.950000000000001,0)" xlink:href="#E"/><use transform="matrix(0.05,0,0,0.05,22.950000000000003,0)" xlink:href="#S"/><use transform="matrix(0.05,0,0,0.05,32.95,0)" xlink:href="#I"/><use transform="matrix(0.05,0,0,0.05,42.95,0)" xlink:href="#B"/><use transform="matrix(0.05,0,0,0.05,47.95,0)" xlink:href="#z"/><use transform="matrix(0.05,0,0,0.05,51.900000000000006,0)" xlink:href="#F"/><use transform="matrix(0.05,0,0,0.05,61.900000000000006,0)" xlink:href="#S"/><use transform="matrix(0.05,0,0,0.05,71.9,0)" xlink:href="#F"/></g><path fill="#333" d="M23 0v-37h61v-169l-59 37v-38l62-41h46v211h57V0H23" id="ab"/><use transform="matrix(0.04938271604938272,0,0,0.04938271604938272,0,0)" xlink:href="#ab" id="u"/><path fill="#333" d="M175 0L67-191c6 58 2 128 3 191H24v-248h59L193-55c-6-58-2-129-3-193h46V0h-61" id="ac"/><use transform="matrix(0.04938271604938272,0,0,0.04938271604938272,0,0)" xlink:href="#ac" id="v"/><path fill="#333" d="M230 0l2-204L168 0h-37L68-204 70 0H24v-248h70l56 185 57-185h69V0h-46" id="ad"/><use transform="matrix(0.04938271604938272,0,0,0.04938271604938272,0,0)" xlink:href="#ad" id="w"/><path fill="#333" d="M24-248c93 1 206-16 204 79-1 75-69 88-152 82V0H24v-248zm52 121c47 0 100 7 100-41 0-47-54-39-100-39v80" id="ae"/><use transform="matrix(0.04938271604938272,0,0,0.04938271604938272,0,0)" xlink:href="#ae" id="x"/></defs></g></svg>