<svg xmlns="http://www.w3.org/2000/svg" xmlns:xlink="http://www.w3.org/1999/xlink" version="1.1" width="1000" height="1000" viewBox="0 0 1000 1000" xml:space="preserve">
<desc>Created with Fabric.js 3.5.0</desc>
<defs>
</defs>
<rect x="0" y="0" width="100%" height="100%" fill="rgba(255,255,255,0)"/>
<g transform="matrix(1.2566 0 0 1.2566 500 500)" id="657185">
<g style="">
		<g transform="matrix(0.8878 0 0 0.8878 215.3424 56.2554)" id="848181">
<path style="stroke: none; stroke-width: 1; stroke-dasharray: none; stroke-linecap: butt; stroke-dashoffset: 0; stroke-linejoin: miter; stroke-miterlimit: 4; is-custom-font: none; font-file-url: none; fill: rgb(250,197,70); fill-rule: nonzero; opacity: 1;" transform=" translate(-800, -562.56)" d="M 857.6 345.6 h -102.4 v 64 h 64 v 51.2 c 0 204.8 -62.72 247.04 -115.2 318.72 C 842.24 734.72 896 678.4 896 396.8 c 0 -16.64 0 -51.2 -38.4 -51.2 z" stroke-linecap="round"/>
</g>
		<g transform="matrix(0.8878 0 0 0.8878 215.2006 56.2556)" id="821278">
<path style="stroke: none; stroke-width: 1; stroke-dasharray: none; stroke-linecap: butt; stroke-dashoffset: 0; stroke-linejoin: miter; stroke-miterlimit: 4; is-custom-font: none; font-file-url: none; fill: rgb(35,28,28); fill-rule: nonzero; opacity: 1;" transform=" translate(-799.84, -562.56)" d="M 704 792.32 c -3.84 0 -7.68 -1.28 -10.24 -5.12 c -3.84 -5.12 -3.84 -10.24 0 -15.36 c 7.68 -11.52 16.64 -21.76 24.32 -32 C 764.16 683.52 806.4 629.76 806.4 460.8 v -38.4 h -51.2 c -7.68 0 -12.8 -5.12 -12.8 -12.8 v -64 c 0 -7.68 5.12 -12.8 12.8 -12.8 h 102.4 c 51.2 0 51.2 48.64 51.2 64 c 0 279.04 -52.48 345.6 -200.96 394.24 c -1.28 1.28 -2.56 1.28 -3.84 1.28 z M 768 396.8 h 51.2 c 7.68 0 12.8 5.12 12.8 12.8 v 51.2 c 0 174.08 -44.8 235.52 -90.88 291.84 C 839.68 711.68 883.2 645.12 883.2 396.8 c 0 -25.6 -3.84 -38.4 -25.6 -38.4 h -89.6 v 38.4 z" stroke-linecap="round"/>
</g>
		<g transform="matrix(0.8878 0 0 0.8878 -51.7005 68.1889)" id="37861">
<path style="stroke: none; stroke-width: 1; stroke-dasharray: none; stroke-linecap: butt; stroke-dashoffset: 0; stroke-linejoin: miter; stroke-miterlimit: 4; is-custom-font: none; font-file-url: none; fill: rgb(250,197,70); fill-rule: nonzero; opacity: 1;" transform=" translate(-499.2, -576)" d="M 755.2 819.2 c 0 28.16 0 76.8 -76.8 76.8 H 320 c -76.8 0 -76.8 -48.64 -76.8 -76.8 V 256 h 512 v 563.2 z" stroke-linecap="round"/>
</g>
		<g transform="matrix(0.8878 0 0 0.8878 -51.7003 68.189)" id="50310">
<path style="stroke: none; stroke-width: 1; stroke-dasharray: none; stroke-linecap: butt; stroke-dashoffset: 0; stroke-linejoin: miter; stroke-miterlimit: 4; is-custom-font: none; font-file-url: none; fill: rgb(35,28,28); fill-rule: nonzero; opacity: 1;" transform=" translate(-499.2, -576)" d="M 678.4 908.8 H 320 c -89.6 0 -89.6 -62.72 -89.6 -89.6 V 256 c 0 -7.68 5.12 -12.8 12.8 -12.8 h 512 c 7.68 0 12.8 5.12 12.8 12.8 v 563.2 c 0 26.88 0 89.6 -89.6 89.6 z M 256 268.8 v 550.4 c 0 28.16 0 64 64 64 h 358.4 c 64 0 64 -35.84 64 -64 V 268.8 H 256 z" stroke-linecap="round"/>
</g>
		<g transform="matrix(0.8878 0 0 0.8878 -114.2032 119.3233)" id="912554">
<path style="stroke: none; stroke-width: 1; stroke-dasharray: none; stroke-linecap: butt; stroke-dashoffset: 0; stroke-linejoin: miter; stroke-miterlimit: 4; is-custom-font: none; font-file-url: none; fill: rgb(35,28,28); fill-rule: nonzero; opacity: 1;" transform=" translate(-428.8, -633.6)" d="M 358.4 832 c -7.68 0 -12.8 -5.12 -12.8 -12.8 V 448 c 0 -7.68 5.12 -12.8 12.8 -12.8 s 12.8 5.12 12.8 12.8 v 371.2 c 0 7.68 -5.12 12.8 -12.8 12.8 z M 499.2 832 c -7.68 0 -12.8 -5.12 -12.8 -12.8 V 448 c 0 -7.68 5.12 -12.8 12.8 -12.8 s 12.8 5.12 12.8 12.8 v 371.2 c 0 7.68 -5.12 12.8 -12.8 12.8 z" stroke-linecap="round"/>
</g>
		<g transform="matrix(0.8878 0 0 0.8878 73.2956 119.3233)" id="480481">
<path style="stroke: none; stroke-width: 1; stroke-dasharray: none; stroke-linecap: butt; stroke-dashoffset: 0; stroke-linejoin: miter; stroke-miterlimit: 4; is-custom-font: none; font-file-url: none; fill: rgb(35,28,28); fill-rule: nonzero; opacity: 1;" transform=" translate(-640, -633.6)" d="M 640 832 c -7.68 0 -12.8 -5.12 -12.8 -12.8 V 448 c 0 -7.68 5.12 -12.8 12.8 -12.8 s 12.8 5.12 12.8 12.8 v 371.2 c 0 7.68 -5.12 12.8 -12.8 12.8 z" stroke-linecap="round"/>
</g>
		<g transform="matrix(0.8878 0 0 0.8878 -58.5183 -193.2118)" id="561779">
<path style="stroke: none; stroke-width: 1; stroke-dasharray: none; stroke-linecap: butt; stroke-dashoffset: 0; stroke-linejoin: miter; stroke-miterlimit: 4; is-custom-font: none; font-file-url: none; fill: rgb(255,255,255); fill-rule: nonzero; opacity: 1;" transform=" translate(-491.52, -281.5608)" d="M 720.64 166.4 c -3.84 0 -7.68 0 -11.52 1.28 c -14.08 -24.32 -38.4 -39.68 -66.56 -39.68 c -34.56 0 -81.92 -19.2 -92.16 12.8 c -10.24 -10.24 -6.4 25.6 -21.76 25.6 h -1.28 c -6.4 -57.6 -51.2 -64 -107.52 -64 c -48.64 0 -89.6 -3.84 -103.68 42.24 c -12.8 -10.24 -5.12 8.96 -23.04 8.96 c -43.52 0 -76.8 11.52 -76.8 57.6 S 225.28 256 268.8 256 h 11.52 v 83.2 c 0 17.92 14.08 32 32 32 s 32 -14.08 32 -32 V 256 h 51.2 v 179.2 c 0 14.08 16.64 25.6 38.4 25.6 s 38.4 -11.52 38.4 -25.6 V 256 h 89.6 v 64 c 0 21.76 16.64 38.4 38.4 38.4 s 38.4 -16.64 38.4 -38.4 v -64 h 80.64 c 33.28 0 47.36 10.24 47.36 -25.6 s -12.8 -64 -46.08 -64 z" stroke-linecap="round"/>
</g>
		<g transform="matrix(0.8878 0 0 0.8878 -56.8136 -193.1787)" id="387306">
<path style="stroke: none; stroke-width: 1; stroke-dasharray: none; stroke-linecap: butt; stroke-dashoffset: 0; stroke-linejoin: miter; stroke-miterlimit: 4; is-custom-font: none; font-file-url: none; fill: rgb(35,28,28); fill-rule: nonzero; opacity: 1;" transform=" translate(-493.44, -281.5978)" d="M 435.2 473.6 c -28.16 0 -51.2 -16.64 -51.2 -38.4 V 268.8 h -25.6 v 70.4 c 0 24.32 -20.48 44.8 -44.8 44.8 S 268.8 363.52 268.8 339.2 V 268.8 h -1.28 c -21.76 0 -37.12 0 -47.36 -7.68 c -11.52 -8.96 -14.08 -25.6 -14.08 -49.92 c 0 -46.08 30.72 -70.4 89.6 -70.4 h 1.28 v -1.28 c 1.28 -2.56 5.12 -8.96 11.52 -10.24 h 1.28 C 327.68 88.32 368.64 89.6 408.32 89.6 h 11.52 c 35.84 0 90.88 0 112.64 46.08 c 2.56 -3.84 5.12 -7.68 10.24 -8.96 C 558.08 104.96 588.8 108.8 614.4 112.64 c 10.24 1.28 19.2 2.56 28.16 2.56 c 29.44 0 55.04 14.08 72.96 38.4 c 39.68 -3.84 65.28 26.88 65.28 76.8 c 0 11.52 -1.28 24.32 -10.24 32 c -8.96 7.68 -20.48 7.68 -33.28 6.4 c -5.12 0 -10.24 -1.28 -16.64 -1.28 H 652.8 v 51.2 c 0 28.16 -23.04 51.2 -51.2 51.2 s -51.2 -23.04 -51.2 -51.2 v -51.2 h -64 v 166.4 c 0 23.04 -23.04 39.68 -51.2 39.68 z m -89.6 -230.4 h 51.2 c 7.68 0 12.8 5.12 12.8 12.8 v 179.2 c 0 5.12 10.24 12.8 25.6 12.8 s 25.6 -7.68 25.6 -12.8 V 256 c 0 -7.68 5.12 -12.8 12.8 -12.8 h 89.6 c 7.68 0 12.8 5.12 12.8 12.8 v 64 c 0 14.08 11.52 25.6 25.6 25.6 s 25.6 -11.52 25.6 -25.6 v -64 c 0 -7.68 5.12 -12.8 12.8 -12.8 h 80.64 c 6.4 0 12.8 0 17.92 1.28 c 5.12 0 12.8 1.28 14.08 0 c 0 0 1.28 -2.56 1.28 -14.08 c 0 -19.2 -3.84 -51.2 -34.56 -51.2 c -2.56 0 -6.4 0 -8.96 1.28 c -5.12 1.28 -11.52 -1.28 -14.08 -6.4 C 686.08 153.6 665.6 140.8 642.56 140.8 c -10.24 0 -21.76 -1.28 -32 -2.56 c -30.72 -3.84 -44.8 -3.84 -48.64 7.68 c -1.28 3.84 -5.12 7.68 -8.96 8.96 c -2.56 8.96 -7.68 25.6 -24.32 25.6 h -1.28 c -6.4 0 -11.52 -5.12 -12.8 -11.52 c -3.84 -46.08 -34.56 -53.76 -94.72 -53.76 h -11.52 c -47.36 0 -70.4 1.28 -79.36 33.28 c -1.28 3.84 -3.84 7.68 -8.96 8.96 c -2.56 0 -3.84 1.28 -6.4 0 c -2.56 5.12 -8.96 8.96 -19.2 8.96 c -56.32 0 -64 21.76 -64 44.8 c 0 6.4 0 25.6 5.12 29.44 c 3.84 2.56 16.64 2.56 32 2.56 H 281.6 c 7.68 0 12.8 5.12 12.8 12.8 v 83.2 c 0 10.24 8.96 19.2 19.2 19.2 s 19.2 -8.96 19.2 -19.2 V 256 c 0 -7.68 5.12 -12.8 12.8 -12.8 z" stroke-linecap="round"/>
</g>
</g>
</g>
<g transform="matrix(2.3928 0 0 5.6864 300.5891 538.1392)" id="999326">
<path style="stroke: rgb(0,0,0); stroke-opacity: 0; stroke-width: 5; stroke-dasharray: none; stroke-linecap: butt; stroke-dashoffset: 0; stroke-linejoin: miter; stroke-miterlimit: 4; is-custom-font: none; font-file-url: none; fill: rgb(255,255,255); fill-rule: nonzero; opacity: 1;" vector-effect="non-scaling-stroke" transform=" translate(-79, -78.9999)" d="M 154.685 2.50049 H 154.711 L 154.738 2.49994 C 155.15 2.49126 155.491 2.81853 155.5 3.2304 L 155.5 3.23069 C 155.5 3.24095 155.5 3.25176 155.5 3.26283 L 155.499 3.28886 V 3.3149 V 154.686 C 155.499 155.135 155.135 155.5 154.685 155.5 H 3.31409 C 2.86449 155.5 2.5 155.135 2.5 154.686 V 3.3149 C 2.5 2.86483 2.86465 2.50049 3.31409 2.50049 H 154.685 Z" stroke-linecap="round"/>
</g>
<g transform="matrix(1.2345 0 0 1.0417 147.8691 165.5889)" id="36060">
<path style="stroke: rgb(0,0,0); stroke-opacity: 0; stroke-width: 5; stroke-dasharray: none; stroke-linecap: butt; stroke-dashoffset: 0; stroke-linejoin: miter; stroke-miterlimit: 4; is-custom-font: none; font-file-url: none; fill: rgb(255,255,255); fill-rule: nonzero; opacity: 1;" vector-effect="non-scaling-stroke" transform=" translate(-46.5001, -78.5)" d="M 2.6167 78.5 C 2.6167 57.2341 7.7391 38.064 15.8764 24.2946 C 24.0482 10.4665 34.9664 2.5 46.5001 2.5 C 58.0338 2.5 68.952 10.4665 77.1238 24.2946 C 85.2611 38.064 90.3835 57.2341 90.3835 78.5 C 90.3835 99.7659 85.2611 118.936 77.1238 132.705 C 68.952 146.533 58.0338 154.5 46.5001 154.5 C 34.9664 154.5 24.0482 146.533 15.8764 132.705 C 7.7391 118.936 2.6167 99.7659 2.6167 78.5 Z" stroke-linecap="round"/>
</g>
<g transform="matrix(3.8266 0 0 1.1334 323.29 110.8664)" id="924742">
<path style="stroke: rgb(0,0,0); stroke-opacity: 0; stroke-width: 5; stroke-dasharray: none; stroke-linecap: butt; stroke-dashoffset: 0; stroke-linejoin: miter; stroke-miterlimit: 4; is-custom-font: none; font-file-url: none; fill: rgb(255,255,255); fill-rule: nonzero; opacity: 1;" vector-effect="non-scaling-stroke" transform=" translate(-46.5001, -78.5)" d="M 2.6167 78.5 C 2.6167 57.2341 7.7391 38.064 15.8764 24.2946 C 24.0482 10.4665 34.9664 2.5 46.5001 2.5 C 58.0338 2.5 68.952 10.4665 77.1238 24.2946 C 85.2611 38.064 90.3835 57.2341 90.3835 78.5 C 90.3835 99.7659 85.2611 118.936 77.1238 132.705 C 68.952 146.533 58.0338 154.5 46.5001 154.5 C 34.9664 154.5 24.0482 146.533 15.8764 132.705 C 7.7391 118.936 2.6167 99.7659 2.6167 78.5 Z" stroke-linecap="round"/>
</g>
</svg>