<?xml version="1.0" standalone="no"?>
<!DOCTYPE svg PUBLIC "-//W3C//DTD SVG 20010904//EN"
 "http://www.w3.org/TR/2001/REC-SVG-20010904/DTD/svg10.dtd">
<svg version="1.0" xmlns="http://www.w3.org/2000/svg"
 width="2560.000000pt" height="747.000000pt" viewBox="0 0 2560.000000 747.000000"
 preserveAspectRatio="xMidYMid meet">

<g transform="translate(0.000000,747.000000) scale(0.100000,-0.100000)"
fill="#000000" stroke="none">
<path d="M21 7438 c84 -162 357 -582 519 -797 208 -276 325 -383 523 -476 172
-81 205 -85 651 -85 415 0 438 -3 444 -47 2 -14 -10 -36 -33 -62 -33 -37 -313
-270 -767 -640 l-188 -152 0 -1762 c0 -1074 -4 -1795 -10 -1846 -12 -108 -46
-181 -103 -222 -23 -16 -103 -70 -178 -118 -289 -190 -532 -416 -706 -659 -34
-48 -60 -88 -59 -90 2 -2 32 16 67 38 140 91 335 170 526 212 85 19 129 22
323 22 361 1 425 -17 1112 -310 605 -258 867 -367 986 -410 l93 -34 310 0 311
0 76 31 c287 114 1573 828 1922 1066 105 72 158 144 186 254 18 71 19 153 19
2339 0 1870 -2 2278 -14 2340 -101 556 -557 984 -1175 1102 -110 21 -128 22
-2011 28 -1329 5 -1918 10 -1961 18 -277 51 -539 129 -739 222 -38 18 -85 39
-103 46 -33 15 -33 15 -21 -8z m4162 -1384 c176 -40 302 -135 377 -284 58
-117 55 21 55 -2315 l0 -2150 -24 -60 c-17 -41 -43 -78 -85 -121 -78 -78 -141
-104 -257 -104 -93 0 -107 4 -414 125 -987 389 -1888 746 -1898 752 -4 2 48
48 115 100 150 118 276 222 387 322 62 56 91 90 110 131 l26 55 3 1783 2 1782
766 0 c671 0 774 -2 837 -16z"/>
<path d="M7330 5399 c-228 -88 -457 -175 -508 -195 l-93 -36 23 -25 c13 -14
55 -51 93 -82 194 -156 408 -263 611 -306 100 -21 366 -21 619 0 267 23 666
31 747 16 168 -32 245 -128 264 -328 l6 -72 -33 -5 c-19 -3 -99 -8 -179 -11
-298 -12 -642 -59 -910 -126 -466 -115 -795 -284 -1050 -539 -252 -250 -395
-551 -445 -936 -20 -150 -19 -439 0 -591 58 -446 263 -901 598 -1333 89 -113
217 -259 239 -271 30 -16 91 -13 128 6 36 19 407 297 765 575 316 245 789 614
835 652 19 15 37 28 41 28 3 0 9 -39 12 -88 25 -349 246 -730 560 -964 218
-161 417 -222 556 -169 156 59 429 318 691 656 78 101 242 336 237 341 -1 1
-22 -2 -47 -6 -25 -5 -94 -12 -155 -15 -276 -16 -447 73 -519 270 -8 21 -12
496 -16 1615 l-5 1585 -31 65 c-52 109 -149 184 -289 226 -55 16 -139 18 -985
24 -1026 7 -984 4 -1137 75 -43 20 -103 56 -135 80 -31 25 -60 45 -65 44 -4 0
-195 -73 -423 -160z m1758 -2170 c-3 -667 -5 -757 -19 -776 -8 -12 -155 -118
-325 -234 -170 -117 -392 -270 -493 -342 -102 -71 -191 -131 -198 -134 -7 -3
-40 21 -74 54 -295 280 -379 783 -214 1280 161 484 554 801 1107 892 139 23
199 29 211 20 4 -3 6 -345 5 -760z"/>
<path d="M14026 5464 c-118 -26 -314 -110 -540 -231 -132 -71 -548 -316 -625
-369 l-35 -23 -54 80 c-107 161 -268 307 -417 379 -153 74 -383 112 -466 77
-54 -22 -163 -121 -743 -667 l-206 -195 82 -6 c237 -17 408 -147 479 -364 10
-32 14 -295 19 -1245 7 -1329 3 -1243 72 -1438 67 -192 188 -376 365 -555 187
-189 443 -357 543 -357 44 0 114 39 239 132 251 189 555 492 760 756 l34 44
-59 -8 c-32 -4 -108 -8 -169 -7 -269 1 -418 97 -455 292 -6 35 -10 488 -10
1266 0 1046 2 1218 15 1261 45 149 260 322 443 356 122 23 238 -29 383 -172
97 -96 153 -174 209 -293 73 -153 70 -98 71 -1116 2 -1144 8 -1387 37 -1494
67 -245 198 -463 402 -667 178 -178 438 -350 529 -350 22 0 59 11 87 26 151
80 437 326 678 583 105 112 270 310 264 316 -2 2 -52 -1 -111 -6 -175 -15
-324 10 -418 70 -53 33 -89 76 -121 147 l-23 49 0 1270 0 1270 24 50 c14 29
57 83 102 127 129 129 321 206 441 179 163 -36 384 -249 483 -464 68 -148 65
-96 65 -1332 0 -1075 1 -1120 20 -1214 48 -238 174 -467 373 -677 188 -199
474 -394 577 -394 99 0 377 216 695 541 150 153 342 375 333 384 -2 2 -52 -1
-111 -6 -301 -26 -501 63 -552 245 -11 42 -15 287 -20 1376 -7 1423 -7 1415
-59 1554 -46 122 -102 193 -270 344 -260 235 -508 396 -720 467 -155 52 -299
22 -616 -127 -163 -77 -552 -299 -779 -445 l-83 -54 -87 83 c-238 229 -578
451 -807 527 -114 38 -181 44 -268 25z"/>
<path d="M21316 5470 c-185 -32 -581 -227 -1061 -523 l-169 -105 -43 65 c-116
177 -258 310 -418 390 -146 74 -393 116 -475 81 -55 -24 -39 -9 -822 -744
l-128 -119 83 -6 c201 -14 358 -113 438 -274 60 -123 59 -97 59 -1290 0 -628
4 -1137 10 -1200 21 -240 115 -463 284 -678 65 -83 224 -244 306 -309 135
-107 318 -208 378 -208 97 0 382 220 687 531 146 149 351 386 342 395 -2 2
-51 -1 -110 -6 -329 -31 -528 74 -567 301 -7 44 -10 435 -8 1279 l3 1215 28
59 c18 40 52 83 105 135 125 123 249 184 377 185 62 1 80 -4 147 -37 139 -68
305 -248 388 -421 74 -155 70 -79 76 -1328 6 -1210 6 -1217 60 -1376 69 -206
186 -384 379 -577 148 -149 267 -240 407 -313 105 -54 142 -55 223 -7 247 149
628 508 899 848 l39 49 -59 -8 c-32 -4 -111 -8 -174 -7 -228 2 -354 62 -422
201 l-33 67 0 1270 0 1270 34 63 c86 159 345 314 499 299 172 -17 397 -219
511 -458 75 -157 71 -75 71 -1325 0 -1231 -1 -1203 61 -1380 71 -204 190 -386
369 -565 190 -191 444 -359 542 -359 118 0 575 382 876 733 82 95 92 112 92
146 l0 39 -137 -1 c-227 0 -356 49 -428 163 -55 87 -53 40 -60 1464 -6 1440
-5 1410 -65 1564 -38 99 -107 189 -229 302 -263 243 -537 424 -752 495 -114
38 -202 33 -359 -20 -206 -71 -572 -263 -962 -505 l-157 -98 -43 42 c-275 262
-593 474 -848 564 -97 34 -174 44 -244 32z"/>
</g>
</svg>
